<?xml version="1.0" encoding="UTF-8" standalone="no"?>
<!-- Created with Inkscape (http://www.inkscape.org/) -->

<svg
   xmlns:dc="http://purl.org/dc/elements/1.1/"
   xmlns:cc="http://creativecommons.org/ns#"
   xmlns:rdf="http://www.w3.org/1999/02/22-rdf-syntax-ns#"
   xmlns:svg="http://www.w3.org/2000/svg"
   xmlns="http://www.w3.org/2000/svg"
   xmlns:sodipodi="http://sodipodi.sourceforge.net/DTD/sodipodi-0.dtd"
   xmlns:inkscape="http://www.inkscape.org/namespaces/inkscape"
   width="280.45834mm"
   height="168.74855mm"
   viewBox="0 0 280.45834 168.74855"
   version="1.1"
   id="svg8"
   inkscape:version="0.92.1 r15371"
   sodipodi:docname="404.svg">
  <defs
     id="defs2" />
  <sodipodi:namedview
     id="base"
     pagecolor="#ffffff"
     bordercolor="#666666"
     borderopacity="1.0"
     inkscape:pageopacity="0.0"
     inkscape:pageshadow="2"
     inkscape:zoom="0.7"
     inkscape:cx="459.40013"
     inkscape:cy="-2.3427433"
     inkscape:document-units="mm"
     inkscape:current-layer="layer2"
     showgrid="false"
     inkscape:window-width="1920"
     inkscape:window-height="1137"
     inkscape:window-x="1912"
     inkscape:window-y="-8"
     inkscape:window-maximized="1"
     fit-margin-top="0"
     fit-margin-left="0"
     fit-margin-right="0"
     fit-margin-bottom="0" />
  <metadata
     id="metadata5">
    <rdf:RDF>
      <cc:Work
         rdf:about="">
        <dc:format>image/svg+xml</dc:format>
        <dc:type
           rdf:resource="http://purl.org/dc/dcmitype/StillImage" />
        <dc:title></dc:title>
      </cc:Work>
    </rdf:RDF>
  </metadata>
  <g
     inkscape:groupmode="layer"
     id="layer2"
     inkscape:label="Layer 2"
     transform="translate(39.30954,-5.4091767)">
    <ellipse
       style="opacity:1;vector-effect:none;fill:#ececec;fill-opacity:1;fill-rule:evenodd;stroke:#ff3c00;stroke-width:0;stroke-linecap:butt;stroke-linejoin:miter;stroke-miterlimit:4;stroke-dasharray:none;stroke-dashoffset:0;stroke-opacity:1"
       id="path4643"
       cx="100.91963"
       cy="164.70833"
       rx="140.22917"
       ry="9.4494047" />
  </g>
  <g
     inkscape:label="Layer 1"
     inkscape:groupmode="layer"
     id="layer1"
     transform="translate(39.30954,-5.4091767)">
    <g
       id="g4535"
       transform="translate(25.390605,0.53453906)">
      <path
         sodipodi:nodetypes="cccccccccccc"
         inkscape:connector-curvature="0"
         id="path4485"
         transform="scale(0.26458333)"
         d="M 170.71484,45.376953 48.572266,186.80469 v 48.57226 L 170,233.94922 l 1.42773,147.14258 67.14314,-0.71485 C 191.59129,266.16075 176.03548,153.89227 233.57227,45.376953 Z m 1.42774,38.572266 V 188.23438 H 86.427734 Z"
         style="fill:#4f8bbb;fill-opacity:1;stroke:none;stroke-width:0.99999994px;stroke-linecap:butt;stroke-linejoin:miter;stroke-opacity:1" />
      <path
         sodipodi:nodetypes="cccccccccccc"
         inkscape:connector-curvature="0"
         id="path4485-2"
         d="m 110.36894,11.627901 32.31689,37.419423 v 12.85141 l -32.12776,-0.377753 -0.37775,38.931479 -17.764956,-0.18914 C 104.84538,70.043615 108.96118,40.339246 93.737914,11.627901 Z m -0.37776,10.205579 v 27.592116 h 22.67872 z"
         style="fill:#4f8bbb;fill-opacity:1;stroke:none;stroke-width:0.26458332px;stroke-linecap:butt;stroke-linejoin:miter;stroke-opacity:1" />
      <path
         id="path4523"
         transform="scale(0.26458333)"
         d="M 292.94336,18.423828 A 85.862963,184.35284 0 0 0 207.08203,202.77539 85.862963,184.35284 0 0 0 292.94336,387.12891 85.862963,184.35284 0 0 0 378.80664,202.77539 85.862963,184.35284 0 0 0 292.94336,18.423828 Z m -0.50391,46.466797 a 53.033006,136.37059 0 0 1 53.03321,136.369145 53.033006,136.37059 0 0 1 -53.03321,136.37109 53.033006,136.37059 0 0 1 -53.0332,-136.37109 53.033006,136.37059 0 0 1 53.0332,-136.369145 z"
         style="opacity:1;vector-effect:none;fill:#4f8bbb;fill-opacity:1;fill-rule:evenodd;stroke:#4f8bbb;stroke-width:0;stroke-linecap:butt;stroke-linejoin:miter;stroke-miterlimit:4;stroke-dasharray:none;stroke-dashoffset:0;stroke-opacity:1"
         inkscape:connector-curvature="0" />
    </g>
    <g
       id="g4641"
       transform="translate(-10.96131,9.0714286)">
      <g
         id="g4551">
        <g
           id="g4573">
          <g
             transform="translate(-22.111607,-6.8035714)"
             id="g4616">
            <path
               style="fill:#999999;stroke:none;stroke-width:0.26458332px;stroke-linecap:butt;stroke-linejoin:miter;stroke-opacity:1"
               d="m 22.577286,166.17054 4.493212,-62.28499 9.574592,46.67642 6.191276,-37.88198 3.170039,-10.67694 -7.900778,62.11891 -2.374434,-6.86059 -7.067223,-28.85745 -3.67088,28.16032 z"
               id="path4537"
               inkscape:connector-curvature="0"
               sodipodi:nodetypes="cccccccccc" />
            <path
               style="opacity:1;vector-effect:none;fill:#999999;fill-opacity:1;fill-rule:evenodd;stroke:#ff3c00;stroke-width:0;stroke-linecap:butt;stroke-linejoin:miter;stroke-miterlimit:4;stroke-dasharray:none;stroke-dashoffset:0;stroke-opacity:1"
               d="m 62.365848,128.61134 a 17.197916,17.197916 0 0 0 -17.197917,17.19792 17.197916,17.197916 0 0 0 17.197917,17.19792 17.197916,17.197916 0 0 0 17.197916,-17.19792 17.197916,17.197916 0 0 0 -17.197916,-17.19792 z m -0.755507,4.72478 a 14.363094,13.890625 0 0 1 14.362946,13.89062 14.363094,13.890625 0 0 1 -14.362946,13.89063 14.363094,13.890625 0 0 1 -14.363465,-13.89063 14.363094,13.890625 0 0 1 14.363465,-13.89062 z"
               id="path4539"
               inkscape:connector-curvature="0" />
            <path
               style="fill:#999999;stroke:none;stroke-width:0.26458332px;stroke-linecap:butt;stroke-linejoin:miter;stroke-opacity:1"
               d="m 65.578869,118.40625 41.388391,-7.18155 -0.94494,1.51191 -15.875,4.34672 -3.023808,47.43601 -0.944942,-5.66964 -1.511905,-40.25447 -12.473213,0.37798 z"
               id="path4546"
               inkscape:connector-curvature="0"
               sodipodi:nodetypes="ccccccccc" />
          </g>
        </g>
      </g>
      <g
         transform="translate(77.863095,-64.066964)"
         id="g4627">
        <path
           style="fill:#999999;stroke:none;stroke-width:0.26458332px;stroke-linecap:butt;stroke-linejoin:miter;stroke-opacity:1"
           d="m 99.221451,226.65219 4.493209,-62.28499 9.5746,46.67642 6.19127,-37.88198 3.17004,-10.67694 -7.90078,62.11891 -2.37443,-6.86058 -7.06722,-28.85746 -3.67088,28.16032 z"
           id="path4537-9"
           inkscape:connector-curvature="0"
           sodipodi:nodetypes="cccccccccc" />
        <path
           style="fill:#999999;stroke:none;stroke-width:0.26458332px;stroke-linecap:butt;stroke-linejoin:miter;stroke-opacity:1"
           d="m 126.43281,172.64594 -2.26741,46.11294 c 0,0 35.90744,-5.48072 26.26905,-24.56852 -9.63839,-19.0878 -24.00164,-21.54442 -24.00164,-21.54442 z m 3.37211,5.29181 c 0,0 10.35589,4.48609 16.67111,17.31559 6.31522,12.82951 -18.00045,17.45815 -18.00045,17.45815 z"
           id="path4594"
           inkscape:connector-curvature="0"
           sodipodi:nodetypes="ccsccscc" />
        <path
           inkscape:connector-curvature="0"
           id="path4539-8"
           d="M 53.294644,184.93006 A 17.197916,17.197916 0 0 0 36.096727,202.12798 17.197916,17.197916 0 0 0 53.294644,219.3259 17.197916,17.197916 0 0 0 70.492559,202.12798 17.197916,17.197916 0 0 0 53.294644,184.93006 Z m -0.755507,4.72478 a 14.363094,13.890625 0 0 1 14.362947,13.89062 14.363094,13.890625 0 0 1 -14.362947,13.89063 14.363094,13.890625 0 0 1 -14.363465,-13.89063 14.363094,13.890625 0 0 1 14.363465,-13.89062 z"
           style="opacity:1;vector-effect:none;fill:#999999;fill-opacity:1;fill-rule:evenodd;stroke:#ff3c00;stroke-width:0;stroke-linecap:butt;stroke-linejoin:miter;stroke-miterlimit:4;stroke-dasharray:none;stroke-dashoffset:0;stroke-opacity:1" />
        <path
           style="fill:#999999;stroke:none;stroke-width:0.26458332px;stroke-linecap:butt;stroke-linejoin:miter;stroke-opacity:1"
           d="m 72.949404,171.13392 1.88988,40.82143 c 0,0 0.944942,8.88245 9.071428,8.50447 8.126494,-0.37798 9.071428,-9.44941 9.071428,-9.44941 l 0.18899,-31.75 -1.700892,3.59078 -2.456846,28.5372 c 0,0 -2.267859,5.66965 -5.102679,5.48066 -2.834822,-0.18899 -6.425594,-1.51191 -6.614584,-7.55953 -0.188986,-6.04762 -1.511904,-31.18303 -1.511904,-31.18303 z"
           id="path4577"
           inkscape:connector-curvature="0"
           sodipodi:nodetypes="ccsccccsscc" />
        <path
           style="fill:#999999;stroke:none;stroke-width:0.26458332px;stroke-linecap:butt;stroke-linejoin:miter;stroke-opacity:1"
           d="m 20.221726,177.18154 28.159224,-7.74851 -2.267855,2.64583 -22.86756,8.69345 -0.566965,6.04763 18.520834,-5.85864 -3.401787,4.34673 -15.686011,8.50447 -4.91369,23.05654 -1.889881,1.32292 z"
           id="path4553"
           inkscape:connector-curvature="0"
           sodipodi:nodetypes="ccccccccccc" />
      </g>
    </g>
  </g>
</svg>
