<?xml version="1.0" encoding="UTF-8" standalone="no"?>
<!-- Created with Inkscape (http://www.inkscape.org/) -->

<svg
   xmlns:dc="http://purl.org/dc/elements/1.1/"
   xmlns:cc="http://creativecommons.org/ns#"
   xmlns:rdf="http://www.w3.org/1999/02/22-rdf-syntax-ns#"
   xmlns:svg="http://www.w3.org/2000/svg"
   xmlns="http://www.w3.org/2000/svg"
   xmlns:xlink="http://www.w3.org/1999/xlink"
   xmlns:sodipodi="http://sodipodi.sourceforge.net/DTD/sodipodi-0.dtd"
   xmlns:inkscape="http://www.inkscape.org/namespaces/inkscape"
   width="532.46057mm"
   height="223.25mm"
   viewBox="0 0 532.46057 223.25"
   version="1.1"
   id="svg8"
   inkscape:version="0.92.1 r15371"
   sodipodi:docname="twitter_trader_icon.svg">
  <defs
     id="defs2">
    <linearGradient
       id="linearGradient5224"
       inkscape:collect="always">
      <stop
         id="stop5228"
         offset="0"
         style="stop-color:#ffffff;stop-opacity:1;" />
      <stop
         id="stop5230"
         offset="1"
         style="stop-color:#ffd900;stop-opacity:1" />
    </linearGradient>
    <linearGradient
       inkscape:collect="always"
       xlink:href="#linearGradient5224"
       id="linearGradient5233"
       gradientUnits="userSpaceOnUse"
       x1="49.510342"
       y1="175.56824"
       x2="130.77975"
       y2="140.51785"
       gradientTransform="matrix(3.7795276,0,0,3.7795276,-81.337583,-151.89355)" />
  </defs>
  <sodipodi:namedview
     id="base"
     pagecolor="#ffffff"
     bordercolor="#666666"
     borderopacity="1.0"
     inkscape:pageopacity="0.0"
     inkscape:pageshadow="2"
     inkscape:zoom="0.35"
     inkscape:cx="1630.9074"
     inkscape:cy="-80.486534"
     inkscape:document-units="mm"
     inkscape:current-layer="layer1"
     showgrid="false"
     showguides="false"
     inkscape:window-width="1920"
     inkscape:window-height="1137"
     inkscape:window-x="1912"
     inkscape:window-y="-8"
     inkscape:window-maximized="1"
     fit-margin-top="0"
     fit-margin-left="0"
     fit-margin-right="0"
     fit-margin-bottom="0">
    <inkscape:grid
       type="xygrid"
       id="grid5211"
       originx="134.76289"
       originy="-46.412464" />
  </sodipodi:namedview>
  <metadata
     id="metadata5">
    <rdf:RDF>
      <cc:Work
         rdf:about="">
        <dc:format>image/svg+xml</dc:format>
        <dc:type
           rdf:resource="http://purl.org/dc/dcmitype/StillImage" />
        <dc:title />
      </cc:Work>
    </rdf:RDF>
  </metadata>
  <g
     inkscape:label="Layer 1"
     inkscape:groupmode="layer"
     id="layer1"
     transform="translate(134.7629,-27.337539)">
    <path
       id="path4485"
       transform="matrix(0.26458333,0,0,0.26458333,-142.8231,27.337311)"
       style="opacity:1;vector-effect:none;fill:#45bbe6;fill-opacity:1;fill-rule:evenodd;stroke:#0084b4;stroke-width:3.77952766;stroke-linecap:butt;stroke-linejoin:miter;stroke-miterlimit:4;stroke-dasharray:none;stroke-dashoffset:0;stroke-opacity:1"
       d="M 306.63867,1.890625 A 274.28571,419.99999 0 0 0 32.353516,421.89062 a 274.28571,419.99999 0 0 0 274.285154,420 274.28571,419.99999 0 0 0 274.28516,-420 A 274.28571,419.99999 0 0 0 306.63867,1.890625 Z"
       inkscape:connector-curvature="0" />
    <path
       id="rect4689"
       transform="matrix(0.26458333,0,0,0.26458333,-142.8231,27.337311)"
       style="opacity:1;fill:url(#linearGradient5233);fill-opacity:1;stroke:none;stroke-width:0;stroke-miterlimit:4;stroke-dasharray:none;stroke-opacity:1"
       d="m 451.45508,320.25781 24.79297,31.20703 -192.08789,156.59375 -55.33985,-79.04297 0.0371,-0.0332 -13.91797,-19.78515 -22.16601,17.70703 0.0254,0.0332 -152.093752,121.9043 c 0.370694,1.10088 0.565849,2.31282 0.720703,4.03906 0.105539,0.36272 0.216731,0.72503 0.302735,1.08984 3.407459,7.96232 3.198914,5.60127 2.978515,11.71094 0.01781,-0.37683 0.03465,-0.78215 0.05859,-1.03125 0.03024,-0.30879 0.139249,0.6062 0.191406,0.91211 0.136441,0.80168 0.293299,1.60092 0.373047,2.41016 0.117164,1.18386 0.173914,2.37281 0.244141,3.56054 5.21e-4,0.004 0.0014,0.008 0.002,0.0117 0.192211,1.51442 0.318735,2.87819 0.339844,4.1582 l 5.892578,-4.68945 -0.05664,-0.084 154.923823,-124.17188 55.47852,79.23438 -0.25782,0.20898 14.13282,19.60938 22.16601,-17.70313 -0.16406,-0.23242 193.22266,-157.51758 25.89648,32.5957 16.74805,-78.55273 z M 43.300781,562.40039 c 0.103178,0.27105 0.228266,0.56557 0.320313,0.82422 0.176408,0.27554 -0.0098,-0.15427 -0.320313,-0.82422 z"
       inkscape:connector-curvature="0" />
    <flowRoot
       xml:space="preserve"
       id="flowRoot5235"
       style="font-style:normal;font-weight:normal;font-size:40px;line-height:1.25;font-family:sans-serif;letter-spacing:0px;word-spacing:0px;fill:#000000;fill-opacity:1;stroke:none"
       transform="scale(0.26458333)"><flowRegion
         id="flowRegion5237"><rect
           id="rect5239"
           width="1068.5714"
           height="815.71429"
           x="110"
           y="149.66254" /></flowRegion><flowPara
         id="flowPara5241" /></flowRoot>    <text
       xml:space="preserve"
       style="font-style:normal;font-weight:normal;font-size:109.62543488px;line-height:1;font-family:sans-serif;letter-spacing:0px;word-spacing:0px;fill:#777777;fill-opacity:1;stroke:none;stroke-width:0.57096577;"
       x="24.397594"
       y="127.45585"
       id="text4520"
       transform="scale(0.99463392,1.005395)"><tspan
         sodipodi:role="line"
         x="24.397594"
         y="127.45585"
         id="tspan4514"
         style="stroke-width:0.57096577;fill:#777777;fill-opacity:1;"><tspan
           x="24.397594"
           y="127.45585"
           style="line-height:1;fill:#777777;stroke-width:0.57096577;fill-opacity:1;"
           id="tspan4510">Twitter</tspan><tspan
           dx="0"
           x="399.52213"
           y="127.45585"
           style="line-height:1;fill:#777777;stroke-width:0.57096577;fill-opacity:1;"
           id="tspan4512" /></tspan><tspan
         sodipodi:role="line"
         x="24.397594"
         y="237.08128"
         id="tspan4518"
         style="stroke-width:0.57096577;fill:#777777;fill-opacity:1;"><tspan
           x="24.397594"
           y="237.08128"
           style="line-height:1;fill:#777777;stroke-width:0.57096577;fill-opacity:1;"
           id="tspan4516">Trader</tspan></tspan></text>
    <flowRoot
       xml:space="preserve"
       id="flowRoot5253"
       style="font-style:normal;font-weight:normal;font-size:40px;line-height:1.25;font-family:sans-serif;letter-spacing:0px;word-spacing:0px;fill:#000000;fill-opacity:1;stroke:none"
       transform="scale(0.26458333)"><flowRegion
         id="flowRegion5255"><rect
           id="rect5257"
           width="355.71429"
           height="160"
           x="701.42859"
           y="429.66254" /></flowRegion><flowPara
         id="flowPara5259" /></flowRoot>  </g>
</svg>
